<?xml version="1.0" encoding="UTF-8"?>
<svg width="1024px" height="320px" viewBox="0 0 1024 320" version="1.1" xmlns="http://www.w3.org/2000/svg" xmlns:xlink="http://www.w3.org/1999/xlink">
    <title>Mobile</title>
    <g id="Mobile" stroke="none" stroke-width="1" fill="none" fill-rule="evenodd">
        <path d="M464.865418,245 C503.252762,245 523.698196,224.97182 523.698196,197.766876 C523.698196,172.481299 505.589383,157.209812 486.145359,156.291853 L486.145359,154.622838 C503.920368,150.617202 517.022136,138.016139 517.022136,117.904508 C517.022136,92.2851284 497.995365,74.092865 460.275626,74.092865 L391.846012,74.092865 L391.846012,245 L464.865418,245 Z M454.767877,145.610157 L427.980186,145.610157 L427.980186,103.300627 L455.435483,103.300627 C471.458027,103.300627 480.554158,111.562252 480.554158,123.912962 C480.554158,137.431984 469.53866,145.610157 454.767877,145.610157 Z M457.438301,215.458435 L427.980186,215.458435 L427.980186,170.061227 L458.272808,170.061227 C475.630564,170.061227 486.395711,180.075317 486.395711,194.178494 C486.395711,207.029909 477.633382,215.458435 457.438301,215.458435 Z M564.340488,100.2964 C574.938734,100.2964 583.617611,92.2016776 583.617611,82.2710384 C583.617611,72.42385 574.938734,64.3291273 564.340488,64.3291273 C553.825694,64.3291273 545.146816,72.42385 545.146816,82.2710384 C545.146816,92.2016776 553.825694,100.2964 564.340488,100.2964 Z M582.032047,245 L582.032047,116.819649 L546.482028,116.819649 L546.482028,245 L582.032047,245 Z M645.956053,245 L645.956053,74.092865 L610.406034,74.092865 L610.406034,245 L645.956053,245 Z M748.017051,247.086269 C777.224813,247.086269 800.006868,223.970411 800.006868,181.076726 C800.006868,137.01473 776.223404,115.150634 748.100502,115.150634 C726.653659,115.150634 716.389217,127.918598 711.632524,138.349942 L710.547665,138.349942 L710.547665,74.092865 L674.997645,74.092865 L674.997645,245 L710.04696,245 L710.04696,224.471116 L711.632524,224.471116 C716.556119,235.152812 727.321265,247.086269 748.017051,247.086269 Z M736.7512,218.796465 C719.643796,218.796465 709.796608,203.77533 709.796608,180.909824 C709.796608,158.044319 719.476895,143.440438 736.7512,143.440438 C754.359308,143.440438 763.705792,158.711925 763.705792,180.909824 C763.705792,203.274625 754.192407,218.796465 736.7512,218.796465 Z M841.316649,293.067632 C867.770537,293.067632 881.790262,279.54861 889.050478,258.852824 L938.870575,116.819649 L901.234287,116.819649 L874.446596,210.952094 L873.111384,210.952094 L846.574046,116.819649 L809.18811,116.819649 L855.169473,248.671833 L853.083205,254.096132 C848.409963,266.11304 839.480732,266.697195 826.96312,262.85846 L818.951848,289.395799 C824.042344,291.565518 832.303968,293.067632 841.316649,293.067632 Z" id="Bilby" fill="#FFFFFF" fill-rule="nonzero"></path>
        <circle id="Oval" fill="#801323" cx="171.434783" cy="160" r="124"></circle>
        <path d="M178.635796,278.608696 C147.814733,263.677578 125.004974,248.596729 110.206518,233.366148 C95.4080618,218.135567 83.0632375,199.771862 73.1720451,178.275032 C69.8767588,171.880004 84.0186846,168.622985 115.597822,168.503976 C147.17696,168.384967 168.189618,171.641986 178.635796,178.275032 C164.604574,162.497475 154.615718,143.196182 148.669229,120.371156 C142.722739,97.5461298 142.722739,76.769821 148.669229,58.0422297 C175.213738,63.8018827 201.05256,79.8531845 226.185694,106.196135 C251.318829,132.539086 270.623446,163.912638 284.099546,200.316792 C276.531469,216.615968 265.099833,232.648463 249.804641,248.414277 C234.509448,264.180091 210.7865,274.244897 178.635796,278.608696 Z" id="Path-3" fill="#FFFFFF"></path>
    </g>
</svg>